####
#
# OBJ File Generated by Meshlab
#
####
# Object bunny_1k_vn.obj
#
# Vertices: 502
# Faces: 1000
#
####
vn 1.608033 5.877645 -1.152797
v 65.1608 51.010200000000005 0.28925999999999996
vn 1.337650 3.531274 3.720591
v 54.2442 60.5666 4.451639999999999
vn 1.366843 5.871433 0.462959
v 84.1972 52.493199999999995 1.9348199999999998
vn 5.400124 2.557157 -1.205965
v 96.514 41.476600000000005 0.3489
vn -5.705976 0.113799 0.622171
v 44.4328 54.873000000000005 3.2488200000000003
vn 0.196329 6.060831 -1.057038
v 68.7356 50.017199999999995 0.46356
vn -1.343599 3.425769 5.072217
v 69.078 43.642399999999995 4.68834
vn 4.153237 4.013896 1.499020
v 92.6234 47.0872 2.8429800000000003
vn -1.709990 4.109728 3.689362
v 48.166 58.72500000000001 4.99224
vn -3.934320 1.311504 -4.544485
v 70.5676 71.5574 -2.40306
vn 1.364856 5.246988 2.461997
v 84.8634 51.2686 3.26118
vn 3.434845 3.420056 3.546711
v 91.5254 46.050999999999995 3.7726800000000003
vn 2.830491 -2.799163 1.220578
v 73.3838 63.909800000000004 -1.12872
vn 2.505312 0.757090 4.573924
v 52.8728 49.3232 6.3399
vn 0.469012 5.279253 -2.518470
v 54.80800000000001 61.736000000000004 0.24137999999999998
vn 0.572888 5.054748 2.049230
v 51.516400000000004 67.9454 -3.1798800000000003
vn -0.762098 3.930008 4.519349
v 76.7274 48.4668 4.42272
vn 3.369227 1.542288 4.978720
v 91.2388 37.0952 5.3055
vn 3.512210 -0.201041 2.194806
v 75.3552 66.00059999999999 -1.6923599999999999
vn 2.213169 1.490026 4.295850
v 64.18039999999999 66.6896 0.38796
vn -5.305551 -1.144880 -2.067247
v 45.852199999999996 43.803599999999996 0.7884
vn 3.069579 5.059824 1.099638
v 88.8298 50.352399999999996 2.4697199999999997
vn 0.506223 -1.625328 5.338757
v 79.015 17.935000000000002 5.6171999999999995
vn -6.070494 1.199050 0.503962
v 43.242399999999996 51.1106 3.83928
vn 4.240053 1.894010 -3.540207
v 94.701 40.8136 -1.19814
vn 4.506449 1.316612 3.729592
v 94.6078 37.2986 4.49556
vn 1.439637 2.139713 2.388578
v 70.8946 73.42999999999999 -1.33734
vn 0.593460 -1.432891 5.418806
v 51.4696 47.4846 6.38202
vn 4.528999 0.267057 3.982241
v 55.4518 49.3346 5.22204
vn -1.308863 6.059175 0.127977
v 74.9894 51.8796 1.70496
vn -1.063142 6.042793 0.177996
v 50.7286 62.224999999999994 0.51924
vn 1.421439 5.693614 1.591767
v 51.8926 62.6444 -0.01218
vn 5.385991 3.079599 0.265813
v 95.701 43.247600000000006 1.5876599999999998
vn 5.029034 1.816022 -3.076399
v 95.8404 37.857400000000005 -1.05402
vn 5.304558 2.805741 -0.243464
v 54.652 60.643800000000006 -0.5892000000000001
vn 0.532652 -0.842678 -5.938689
v 52.8634 55.7326 -0.9826199999999999
vn -1.782630 4.366013 3.818306
v 73.63419999999999 48.64 4.0674
vn -6.158469 0.124598 0.638658
v 44.0318 56.6228 3.5141400000000003
vn 2.393512 -2.207393 3.821926
v 87.1982 14.794199999999998 5.1993599999999995
vn -5.705555 0.972681 -1.724102
v 43.0366 51.441 1.1204399999999999
vn 2.700268 2.479342 -4.963097
v 89.9778 40.457 -2.25738
vn -0.340995 1.307651 5.002501
v 49.1414 52.3454 6.41472
vn -2.046279 4.570894 2.613755
v 61.289 66.70859999999999 0.31494
vn 3.108390 1.289220 4.204099
v 56.3198 59.7932 4.26
vn -3.480955 0.758785 -4.754329
v 49.528000000000006 37.8764 -1.63422
vn -2.918034 0.649694 -5.360461
v 50.6648 45.6454 -0.88254
vn 1.333836 2.780470 -5.407663
v 86.245 42.3256 -2.28444
vn -0.154769 6.068124 0.463050
v 80.813 52.773 1.92156
vn 0.573487 4.878591 3.128846
v 64.9508 49.9086 2.91894
vn -1.820569 2.834385 3.338549
v 56.5082 17.8222 5.33472
vn -0.565899 4.381004 -4.342606
v 77.4222 48.9122 -1.40358
vn 1.166404 3.062868 5.136529
v 61.0062 17.3408 5.26344
vn -1.568356 2.260522 4.921651
v 64.5488 17.1514 4.9914
vn -2.783993 4.725780 2.311562
v 45.9592 60.5192 3.5835
vn -5.729965 -1.028438 -1.035617
v 44.4354 35.227399999999996 0.83454
vn 0.552754 5.477069 -2.813055
v 68.0616 48.8484 -0.7479
vn 1.349973 4.800973 2.950014
v 58.1004 62.116400000000006 1.4355
vn 5.691684 0.401163 2.360628
v 97.59 33.6436 3.09606
vn 1.308729 -1.584169 5.577888
v 82.8762 17.2298 5.447220000000001
vn 4.174313 3.417845 -2.840050
v 93.206 44.4348 -0.76128
vn 5.685445 1.495831 1.432030
v 97.6014 38.1674 2.58168
vn -3.190494 -1.020432 -4.648417
v 50.5834 33.4204 -1.89576
vn -1.292983 5.797390 0.895459
v 56.1098 62.346999999999994 1.04538
vn 4.134989 4.001427 1.865043
v 53.8768 65.271 -2.37468
vn -1.248549 -2.454779 2.947612
v 68.506 14.203399999999998 6.35406
vn -0.260406 2.025862 4.731291
v 70.623 17.6906 6.46278
vn 2.169834 3.704999 4.035210
v 87.7834 48.2614 3.9846
vn 5.795235 -0.391489 1.231200
v 60.1606 57.3792 1.1168399999999998
vn 3.407829 1.009885 4.519895
v 57.155199999999994 50.2992 4.84986
vn -5.745087 -1.357259 0.778755
v 42.4236 47.94 2.70942
vn -1.744714 -1.836705 -5.198439
v 64.7106 64.0346 -1.5321
vn -2.450492 2.481765 -4.710674
v 68.1204 37.156800000000004 -2.97018
vn -5.885201 -0.637318 -2.022197
v 51.958 64.8438 -5.868659999999999
vn -1.688674 4.386040 3.590473
v 69.498 19.1086 5.94264
vn -0.604700 0.933093 5.327391
v 73.852 19.445999999999998 5.791860000000001
vn 2.948473 4.746491 1.728961
v 62.776399999999995 51.1262 2.01408
vn 0.926017 3.428085 -4.667223
v 82.304 39.8734 -2.6802
vn 0.390786 3.813063 4.164824
v 79.567 38.8952 6.4482
vn -0.231734 4.280156 4.456519
v 60.8688 19.1274 4.77756
vn 0.220093 5.883582 1.174595
v 53.816 62.5128 3.08838
vn -1.079112 5.744671 1.901775
v 49.297399999999996 61.671600000000005 3.43812
vn 0.038255 3.546584 5.140324
v 65.821 45.0244 4.18938
vn 0.648886 2.812307 5.311857
v 80.4374 46.4916 4.87146
vn 4.899777 0.217538 -3.129082
v 96.1888 34.470600000000005 -1.50804
vn 2.207984 -2.365947 4.817192
v 93.3688 19.4438 3.76182
vn -1.811962 -0.084868 -5.715362
v 57.953 60.2478 -0.26808
vn -3.776833 0.525146 -4.492712
v 66.5426 34.527 -2.98554
vn 3.418492 4.362340 -1.826016
v 61.4506 51.897400000000005 0.3435
vn -4.859576 -1.997149 -1.665749
v 43.0884 46.3446 1.08582
vn 0.120935 3.470453 4.510627
v 80.525 40.711999999999996 5.32254
vn -0.759431 3.014411 4.730536
v 66.7038 20.206 4.63776
vn 1.540812 -2.507568 4.954256
v 82.8738 20.233999999999998 6.2604
vn 1.087780 -1.582725 4.597288
v 97.2284 19.778200000000002 3.93912
vn 3.146689 2.462985 4.814991
v 91.12 40.9594 4.778580000000001
vn -3.374648 2.967345 3.431254
v 60.2868 20.2272 4.2753
vn -0.863475 0.982857 5.980794
v 62.867599999999996 20.3004 4.70688
vn 5.878751 1.425877 -0.425180
v 98.1594 37.763400000000004 0.8901600000000001
vn -4.674270 3.473695 0.012416
v 58.794 19.9592 3.5195999999999996
vn -0.873330 3.097160 4.800387
v 74.9398 40.5236 5.27118
vn 3.146674 5.178861 -0.231832
v 62.4754 51.858599999999996 1.22442
vn -3.733687 3.885452 1.702111
v 49.998 63.26540000000001 -0.7133999999999999
vn -2.741541 2.358403 4.018663
v 71.4124 20.4768 5.41092
vn -0.035930 -2.300918 5.246070
v 79.46 20.977999999999998 6.5123999999999995
vn 2.424931 -1.551596 5.443626
v 85.535 22.2414 6.05472
vn 4.123148 -0.268763 -3.967665
v 54.8992 57.178 -0.7487400000000001
vn -4.414395 -2.733276 -3.357751
v 51.3096 68.7058 -6.08736
vn 4.259130 4.095757 -0.978765
v 92.9854 47.1012 0.52998
vn 0.262477 4.406390 4.276900
v 65.3706 47.8102 3.62058
vn -0.871804 5.419587 2.270182
v 77.2142 51.690000000000005 3.1488
vn -2.635461 -3.547618 2.832468
v 45.148 45.152 5.34948
vn -1.409683 3.339751 4.642348
v 48.443 55.8974 5.72478
vn -5.339076 -0.135850 -2.747741
v 49.226 58.9792 -0.6218999999999999
vn -1.158281 1.120394 3.637656
v 68.753 21.5384 4.33872
vn 0.822533 -1.462649 5.999725
v 80.058 23.091800000000003 6.5433
vn -5.971291 0.155120 1.785265
v 59.6432 21.9444 3.8428200000000006
vn 1.062357 -0.372143 6.140905
v 65.482 21.6482 4.64412
vn -3.219724 -1.324388 4.854762
v 73.1808 25.018600000000003 6.30978
vn -1.398294 -1.035995 5.788486
v 76.4576 24.2832 6.64992
vn 2.086588 -1.240001 5.772295
v 83.6832 23.5286 6.3082199999999995
vn -2.191620 -1.025742 5.530575
v 48.053 49.9364 6.25686
vn -3.691483 0.010548 4.546845
v 46.107 50.618399999999994 5.97474
vn 3.176732 2.916856 -0.622804
v 75.4324 72.7632 -3.22398
vn -1.428274 4.836674 2.355023
v 49.976 69.6318 -4.67328
vn 2.374428 0.323165 4.932517
v 95.9084 23.7828 3.69318
vn 1.385996 3.595869 4.900745
v 87.4644 43.5506 4.796880000000001
vn -1.567240 -1.137671 5.654815
v 62.7208 26.827 4.96422
vn -3.764172 -0.284972 -0.533684
v 48.161 67.7578 -4.73544
vn -1.155569 5.913062 -1.421239
v 76.3544 51.5802 0.14022
vn 0.522546 5.530432 -1.854476
v 82.2318 52.269600000000004 0.03408
vn 0.926468 4.046599 4.326275
v 83.8642 49.558400000000006 4.05132
vn 0.866718 -1.239687 5.741186
v 65.1574 25.0044 4.9246799999999995
vn -5.787272 0.999958 0.264959
v 42.2224 51.0596 2.54058
vn 5.146817 -2.800822 -0.978994
v 54.8502 60.4062 -3.21474
vn 1.136082 1.299485 5.096074
v 99.1504 23.957 3.80016
vn -3.833206 -4.695663 1.088058
v 50.67359999999999 26.079599999999996 2.1102600000000002
vn -1.980851 -1.073942 4.484597
v 69.1508 25.7838 4.58514
vn -3.854412 4.093254 -2.227256
v 68.7542 72.1858 -1.67562
vn 0.712760 -0.782766 5.661296
v 80.4496 25.2152 6.822
vn 2.455278 -1.203033 5.502601
v 85.003 26.3038 6.40524
vn -4.699639 0.904791 3.838949
v 47.0468 39.0336 3.81396
vn -2.353016 0.854836 5.338057
v 50.941599999999994 38.7466 4.88586
vn -1.088144 4.954460 3.537406
v 69.0862 47.849799999999995 3.5517
vn -2.209870 5.469100 0.024159
v 46.208800000000004 61.7768 2.1369000000000002
vn -5.036296 1.890698 -2.683775
v 44.5456 53.9064 0.47988
vn -5.178952 -3.013994 0.531811
v 43.5096 46.6618 3.31494
vn 3.259840 3.036669 1.817206
v 57.7886 61.35620000000001 3.45186
vn -2.149374 -1.015254 4.752368
v 67.73 31.9434 4.9965
vn 2.772924 2.801845 4.540393
v 90.9894 43.3226 4.48542
vn -1.596399 1.328121 -5.777330
v 52.873599999999996 46.5638 -1.08318
vn -2.228209 3.698912 -3.505527
v 70.5514 36.9768 -4.12602
vn -3.529353 -2.750674 3.632422
v 59.4036 25.057800000000004 3.91212
vn 3.076025 -2.625328 -4.254442
v 59.6288 57.54939999999999 0.044039999999999996
vn 5.511268 2.763850 0.943086
v 60.5784 54.577799999999996 1.87416
vn -1.151595 -1.147892 5.926438
v 75.0638 27.2628 6.5055
vn 0.256671 -0.785802 6.115191
v 79.2888 27.4338 6.7767
vn -4.779653 1.491161 -3.391542
v 46.9212 41.1428 -0.52794
vn -2.490632 0.848714 -0.677951
v 48.6666 71.0142 -6.00258
vn 0.274435 2.186125 -0.342104
v 73.3252 74.9962 -2.6973000000000003
vn 0.931338 3.445628 4.384026
v 100.5952 27.319399999999998 3.18858
vn -2.779487 3.176370 -4.432462
v 56.242999999999995 62.135799999999996 0.20292
vn -5.226459 -1.011963 -0.292375
v 48.646 63.849000000000004 -2.63964
vn 0.069440 -1.199083 5.939960
v 66.9984 33.6482 5.0678399999999995
vn -3.520902 1.225223 -4.771434
v 64.2336 66.9992 -1.4523000000000001
vn -1.319861 0.111016 -5.995715
v 57.495599999999996 35.6748 -2.61018
vn -0.414208 -0.015772 -6.224287
v 61.8524 36.9452 -2.6749799999999997
vn -5.688378 -0.380900 -1.116534
v 43.3346 56.8446 1.9730999999999999
vn -5.749362 1.131207 0.343571
v 44.1312 40.346199999999996 1.87746
vn -1.697195 0.180806 -5.784088
v 50.0934 51.053000000000004 -1.0182
vn 0.742868 2.460493 -5.489508
v 65.0646 43.3958 -2.3796
vn -1.926810 -0.378901 -5.846253
v 54.5266 34.1092 -2.32548
vn -1.284616 -2.571669 2.664198
v 55.9694 13.858 5.40228
vn 1.478307 1.931155 -5.714882
v 79.162 35.922599999999996 -4.2336599999999995
vn 0.604043 -0.736022 5.326768
v 78.5914 29.725600000000004 7.09224
vn 1.069998 -0.231192 6.158799
v 80.9176 31.108400000000003 6.80328
vn 1.473523 -0.121661 6.017106
v 83.13 31.184 6.72486
vn -5.615488 1.682798 1.818190
v 44.0444 53.0324 4.8123
vn 2.711004 1.584122 -5.054888
v 56.1202 58.2342 -0.32484
vn -0.464863 3.284998 -3.982796
v 77.4254 44.192 -2.6304
vn -1.586374 -0.923797 5.813247
v 73.062 31.91 6.844320000000001
vn 0.968047 4.497736 -3.490208
v 63.7652 49.7776 -1.1765400000000001
vn -4.899888 -0.230421 1.605533
v 42.605 48.4996 4.9192800000000005
vn -3.785286 3.776525 -1.693973
v 63.5984 68.85860000000001 -0.91998
vn -0.646952 -2.085333 5.722562
v 60.9904 29.598000000000003 5.0467200000000005
vn -0.518693 2.382258 -5.518881
v 56.235600000000005 48.5492 -1.0683
vn -2.340858 -4.974257 2.608557
v 53.6126 25.684800000000003 3.31998
vn 0.099655 -2.439802 5.586892
v 59.854600000000005 30.299 5.15238
vn 1.651921 -0.254065 -1.945775
v 55.7682 67.7732 -7.3986600000000005
vn -3.139419 -2.107296 -4.121248
v 50.7572 57.1226 -0.8857200000000001
vn -4.647249 -3.963845 0.478850
v 47.8958 28.589799999999997 1.83438
vn 0.431714 -0.625156 5.916427
v 64.851 32.9428 5.24172
vn 4.805974 3.588162 1.747947
v 54.092200000000005 68.5852 -5.55102
vn -2.822002 -1.667010 1.983967
v 54.244 14.1458 5.05326
vn -4.741058 -3.229001 -2.198807
v 50.407199999999996 65.6232 -4.60266
vn -3.829903 4.528930 -0.070880
v 56.524 63.19820000000001 0.55722
vn 5.644753 1.089636 0.446674
v 55.475 63.4832 -2.9747399999999997
vn -3.997957 -3.856726 1.225786
v 46.632400000000004 44.3666 3.48606
vn 0.093537 -0.720609 5.984644
v 58.2956 33.759 5.47488
vn -2.039941 1.216887 5.181026
v 72.4664 34.4472 6.83454
vn -0.034795 0.682897 6.225471
v 76.927 32.8008 6.9332400000000005
vn -1.737972 -0.686758 5.422567
v 53.702600000000004 34.3064 5.38488
vn 1.427769 -0.100954 5.799315
v 60.9778 34.675200000000004 5.40414
vn -5.572695 -1.129432 0.160611
v 45.232 43.4822 1.79196
vn -1.252802 -2.755132 4.479169
v 49.795 46.1056 6.20118
vn 0.430675 1.085750 5.890697
v 57.0032 37.0212 5.42058
vn -5.864645 0.788468 -1.904289
v 44.8746 38.7108 0.6006600000000001
vn 0.977443 0.883096 5.919251
v 81.1794 34.5188 6.861
vn -3.939199 1.176127 -4.660752
v 47.7788 54.931799999999996 -0.4086
vn 1.385322 -0.591527 -1.253376
v 76.6338 69.517 -3.42996
vn 0.181233 0.054075 6.013993
v 63.2164 34.677400000000006 5.10792
vn -2.616439 0.275245 5.258811
v 68.3198 36.1286 5.35494
vn -0.347539 5.992464 1.295447
v 69.1216 50.1076 1.9806599999999999
vn -0.311705 2.135894 5.692578
v 76.2538 36.6834 6.77346
vn 1.482501 1.559935 5.740124
v 87.3838 37.107800000000005 5.76768
vn -0.487064 4.709844 -3.373014
v 77.4664 50.5374 -0.92406
vn -3.048805 0.953964 5.229255
v 50.0594 41.980000000000004 4.39596
vn -5.146625 -0.133884 -3.226164
v 46.2312 36.370599999999996 -0.51144
vn -0.988736 0.138815 6.034609
v 65.5158 36.4804 5.2857
vn -4.804046 -3.541634 0.370554
v 43.4168 45.4084 2.09814
vn -0.320619 4.034925 -4.724236
v 71.6788 45.946799999999996 -2.0004
vn -2.072862 3.530198 3.825337
v 73.0392 37.880399999999995 6.41904
vn 3.004411 0.806140 5.186552
v 89.3534 33.8512 5.90574
vn 2.889652 1.200467 4.483860
v 85.2554 36.094 6.408119999999999
vn -1.653803 -1.883808 -3.109469
v 53.127399999999994 64.3228 -6.869339999999999
vn -0.711722 3.709060 -4.666966
v 60.099199999999996 48.5574 -1.50504
vn -3.890358 -0.209691 -4.071614
v 45.4192 49.764599999999994 -0.33011999999999997
vn -1.331322 1.738607 5.802595
v 54.2368 39.7238 5.0856
vn 0.132466 1.586002 5.982916
v 64.044 39.6832 5.01816
vn 5.146317 0.764207 3.053188
v 59.742599999999996 59.8036 1.5384
vn -0.044451 2.191694 5.792321
v 57.7076 40.4664 5.12538
vn 0.286259 1.057440 5.951277
v 60.4452 38.6946 5.293080000000001
vn 1.406535 2.784442 4.822782
v 87.2216 41.0176 5.56086
vn -0.936340 2.098625 5.723139
v 68.1224 40.4032 5.18748
vn 0.843798 3.998195 4.618243
v 83.054 39.4032 5.89416
vn 5.883214 1.235969 0.839905
v 55.071799999999996 67.0484 -5.67576
vn -5.056311 0.244342 -0.971449
v 50.0156 60.3764 -3.27012
vn -2.045099 2.442184 5.039692
v 69.7432 37.7892 5.40588
vn -1.632612 0.828219 -4.578463
v 53.631600000000006 70.695 -7.27854
vn -1.245390 -4.445230 3.277868
v 48.1286 44.613 5.55342
vn -1.472862 1.030008 -5.609237
v 58.3314 39.4384 -2.6416199999999996
vn -0.950764 2.439686 5.621043
v 72.8956 43.4 5.01828
vn -2.886486 -3.502346 3.791754
v 51.513400000000004 28.9804 4.24716
vn -2.441719 -1.433708 -5.435921
v 70.7958 68.7126 -2.44212
vn 0.154521 3.378474 5.250541
v 59.6284 43.7334 4.60254
vn 0.654598 2.621761 5.398647
v 62.4726 42.3396 4.88634
vn 0.757352 -1.487393 4.438251
v 53.324600000000004 43.986799999999995 4.53096
vn 0.675467 3.127996 5.267909
v 84.7472 43.908199999999994 4.77318
vn 4.131305 0.844094 -4.348633
v 58.8686 56.043 -0.06474
vn 0.093609 1.579268 5.797283
v 78.7044 43.49 5.27484
vn 2.847542 -2.981638 4.319397
v 55.3838 45.7766 4.52634
vn 1.794779 1.076031 5.250461
v 58.0088 45.623999999999995 4.23324
vn -2.238171 2.017207 -4.462170
v 73.6812 73.1494 -3.17262
vn 2.541294 1.402659 -5.527815
v 56.7362 53.800000000000004 -0.7047
vn -4.645999 -0.135864 -3.804035
v 47.194199999999995 44.383 -0.02424
vn 5.915156 -1.739777 -0.575934
v 54.8498 64.4576 -5.689559999999999
vn -6.182278 0.625780 -0.080780
v 49.3358 61.354200000000006 -0.96726
vn -5.998925 1.193561 -0.624759
v 43.6176 54.3714 2.01612
vn -1.385808 -3.434338 -5.049888
v 72.6964 66.347 -2.2094400000000003
vn 1.035162 -3.238314 3.469817
v 75.4732 14.2178 5.96586
vn 0.490442 -1.923325 4.839120
v 70.772 14.8344 6.4851
vn 3.718541 -1.590588 3.550009
v 53.7962 47.4506 6.07266
vn 4.082395 1.221014 4.122592
v 55.163799999999995 55.093199999999996 4.31892
vn 2.945016 2.690856 4.746494
v 74.2954 68.8608 -2.16984
vn 4.694851 1.634888 3.642760
v 73.515 73.2016 -2.3692800000000003
vn -2.156980 1.037965 -5.776106
v 55.843599999999995 39.1946 -2.23338
vn 2.317792 3.718699 3.127046
v 62.285 49.7798 2.74968
vn 0.131552 -0.913863 4.600960
v 58.583200000000005 14.950199999999999 5.68674
vn 2.612314 -1.996449 5.119016
v 86.8262 19.1068 5.233499999999999
vn 3.598979 -4.440100 2.393476
v 90.5784 15.9312 3.70782
vn 5.869164 0.731039 -1.613963
v 98.0154 35.2446 0.01884
vn 4.697351 1.819640 3.066891
v 60.255399999999995 51.782799999999995 3.71622
vn 3.073038 1.414395 4.087651
v 65.3402 65.3092 -0.19794
vn 3.999404 -2.029620 4.363728
v 91.4642 19.4888 4.3779
vn 4.086047 -3.494876 1.806819
v 61.34 58.2326 0.73104
vn 1.742198 -4.567159 3.812168
v 92.584 15.779599999999999 3.1757999999999997
vn 3.975627 2.046038 4.304233
v 52.547399999999996 52.952799999999996 5.7335400000000005
vn 2.356337 2.351299 4.455464
v 60.766 47.5276 3.63606
vn 4.275780 -0.835286 4.465589
v 61.5146 61.666 1.038
vn -2.163416 1.534877 -5.574013
v 53.735600000000005 40.644999999999996 -2.00292
vn 3.557925 -3.981463 3.009948
v 99.96719999999999 18.7846 2.8864799999999997
vn 5.076344 1.652153 3.017554
v 58.43 55.738 3.44052
vn 4.958771 2.602355 2.183816
v 95.2616 42.6444 3.1485600000000002
vn 1.783253 -4.287888 2.993033
v 52.161 45.0528 5.81004
vn 2.143249 0.415127 3.497985
v 69.4384 63.772 -0.02472
vn 2.757892 -1.744781 4.814942
v 88.1992 22.3346 5.76792
vn 3.904632 -1.388671 4.218858
v 101.54820000000001 22.3402 3.3015
vn 4.850273 -2.110106 2.038012
v 103.2558 21.6714 2.55036
vn -2.503734 -4.114055 3.128958
v 49.2146 43.183 4.30194
vn 2.952754 -4.673476 1.912423
v 67.2334 61.541599999999995 -0.19314
vn 3.938568 -1.001911 4.199028
v 93.9714 24.6198 4.65936
vn 2.077222 2.734262 4.833368
v 51.8968 56.4658 5.498939999999999
vn 3.650344 -0.860003 4.926023
v 90.6978 24.2182 5.26968
vn 3.946568 1.619528 2.997538
v 103.1846 26.5798 2.87934
vn 5.575958 1.360751 1.173870
v 104.1794 26.4328 1.9900800000000003
vn 3.252078 -0.713614 5.303852
v 87.7148 25.9676 5.86896
vn 3.918714 -0.679893 4.788742
v 90.9428 28.151799999999998 5.1946200000000005
vn 2.840909 2.392795 3.622649
v 97.9816 28.0244 2.84538
vn 4.865211 -0.275519 3.835070
v 95.348 30.814200000000003 4.22574
vn 3.814716 -0.730815 4.812356
v 90.3832 31.2368 5.66376
vn -4.693088 -2.262856 2.228621
v 46.6148 32.6366 3.4792199999999998
vn 3.464766 3.531744 0.816307
v 98.7996 29.406 1.9268999999999998
vn 2.164430 0.309560 5.565955
v 85.7374 31.084400000000002 6.52668
vn 4.069739 -0.012499 4.542726
v 93.23 33.8046 5.05122
vn -4.121684 1.946332 -1.093313
v 43.4332 59.8492 1.72572
vn 0.037649 3.137395 -5.279722
v 79.0784 45.1814 -2.3423399999999996
vn -4.751758 3.441072 -1.131038
v 49.065 61.1838 -0.10590000000000001
vn -4.139184 -3.418172 0.662965
v 59.034800000000004 22.825599999999998 2.46222
vn 0.843085 0.435034 -2.400548
v 75.8476 71.36019999999999 -3.62526
vn -5.323798 0.790588 -3.073267
v 46.2166 57.7396 0.58236
vn 1.041730 -5.791373 -0.683585
v 88.1514 13.8456 0.04122
vn 2.472507 -4.153964 -1.768439
v 86.506 14.0082 -2.12124
vn -3.227708 -4.745089 -0.920556
v 50.773799999999994 59.421400000000006 -3.53538
vn 3.022116 -4.911722 -1.528353
v 98.07 16.5326 0.5511
vn 3.627564 -3.513729 -3.428809
v 88.9572 18.3292 -2.37252
vn 1.918340 -4.492966 -3.423452
v 95.03059999999999 16.222 -0.15102000000000002
vn 2.729201 -4.475595 -3.251396
v 89.6882 16.033 -0.6457200000000001
vn -0.542970 5.102001 -3.200261
v 74.7988 38.6102 -3.7645799999999996
vn 1.468144 2.357735 -0.998359
v 54.458200000000005 72.0434 -7.0743599999999995
vn 3.568108 -4.633685 1.022224
v 100.4072 17.8248 2.14776
vn 1.094827 4.141598 -4.116045
v 83.6292 48.248000000000005 -1.69806
vn 2.773064 -2.375332 -4.205504
v 99.4838 19.8144 -0.44586000000000003
vn 2.931318 -2.276238 -4.353430
v 92.916 20.0444 -0.8925
vn 4.836087 -3.208262 -0.676524
v 102.941 20.252 1.21812
vn 4.342820 -2.870286 -2.736831
v 101.5976 20.1936 0.21
vn 0.998776 2.790001 -5.160671
v 86.8668 40.707 -2.6208
vn 3.854672 0.990322 -4.394850
v 94.5066 35.0332 -2.03952
vn 5.053929 -0.599887 -2.918648
v 103.4082 23.9112 0.42966
vn -0.391043 1.949145 -5.915501
v 65.7724 41.9786 -2.49792
vn 3.993542 -2.519570 -2.821934
v 90.9098 19.8106 -2.32296
vn -0.544005 2.615853 -5.376194
v 70.6344 42.6508 -2.72376
vn 2.850438 2.694002 -2.991415
v 102.7498 27.6404 0.38082
vn -1.130807 -2.196631 -2.601057
v 64.4862 13.4378 -3.59856
vn -1.321334 5.319851 -2.996105
v 74.1828 49.754 -0.70194
vn 2.786423 4.564200 -2.915686
v 88.6554 48.8646 -0.58242
vn -3.152953 -1.490954 -0.969123
v 51.125 13.971800000000002 -0.01332
vn 0.433574 -5.105765 -3.023293
v 52.9572 56.895399999999995 -1.23804
vn -2.258538 -2.578957 -1.269920
v 51.1186 60.0254 -5.02302
vn 2.870394 3.408904 -4.185484
v 90.0978 45.6686 -1.31136
vn 5.599118 -0.254743 -0.597814
v 104.56700000000001 24.6056 1.32192
vn -0.036823 2.897497 -5.534698
v 73.7024 42.7108 -2.64468
vn 4.820111 -2.127171 -3.220760
v 95.1018 24.3886 -1.22016
vn 4.940975 -1.891040 -3.316718
v 91.954 22.259999999999998 -1.98396
vn 0.241635 3.658824 -5.023954
v 65.8846 46.0872 -1.87614
vn -5.444997 -2.486372 0.797000
v 45.6092 31.9876 1.88658
vn 0.232882 -1.860547 -4.751603
v 66.4162 13.9816 -3.70248
vn 2.691931 0.471357 -4.471613
v 96.18979999999999 23.930799999999998 -0.53208
vn 2.680663 -1.287337 -4.839047
v 88.541 21.8692 -3.2269799999999997
vn -1.178587 2.446623 -5.492474
v 58.9442 44.035000000000004 -2.19726
vn 2.394040 1.938357 -5.083202
v 84.4696 36.1126 -3.74046
vn 1.902022 3.797266 -4.115820
v 59.8566 51.3016 -0.46422
vn 4.307299 -1.161065 -4.254615
v 92.00319999999999 24.477 -2.36622
vn 5.111080 -0.600397 -3.216002
v 95.9856 27.545399999999997 -1.23666
vn 1.847121 1.169590 -4.483356
v 100.37819999999999 24.204 -0.55326
vn 0.963660 -3.332742 -2.281013
v 53.1468 61.4836 -6.02736
vn 4.885117 3.073646 -0.121685
v 103.6788 27.983400000000003 1.4779200000000001
vn 3.070488 1.120573 -5.256198
v 90.2816 34.835 -2.83086
vn 4.204794 -0.320597 -4.603663
v 92.8244 30.5158 -2.3163
vn 2.203473 4.686977 -1.101691
v 102.4408 29.167199999999998 1.1173199999999999
vn 5.738090 -0.239414 -2.518772
v 97.9806 30.881999999999998 -0.00156
vn -5.591184 0.608361 2.617956
v 46.1984 42.465399999999995 2.99862
vn 3.414886 -0.513319 -4.923599
v 89.2278 27.762199999999996 -3.2193
vn -4.144904 -3.810312 2.271549
v 49.2158 28.778 3.29298
vn -5.466915 -0.132712 -1.045509
v 49.98480000000001 61.348400000000005 -2.2580400000000003
vn 5.517336 -0.375103 -2.924698
v 96.6952 31.370399999999997 -0.82596
vn 2.169144 2.791484 -5.115997
v 87.2266 37.617200000000004 -2.916
vn -3.699111 -1.781407 0.836138
v 59.9352 22.0098 1.87164
vn 3.605648 2.822332 -2.715785
v 98.7976 28.760799999999996 0.6189600000000001
vn -2.973339 4.403302 -2.719487
v 64.6118 18.3586 -2.7182399999999998
vn -0.698388 2.831243 -0.710921
v 51.37220000000001 72.68299999999999 -6.56256
vn 0.003645 3.199061 -5.404257
v 62.8728 45.7476 -1.9249800000000001
vn -1.403556 3.411312 -4.419609
v 70.653 38.6308 -2.99394
vn 3.589506 4.775398 1.581069
v 53.4572 67.781 -4.22016
vn 2.518257 5.239697 -1.412851
v 87.454 50.934000000000005 0.29208
vn -1.231522 -3.321516 4.817116
v 55.803799999999995 29.1748 4.881
vn -1.299945 4.207576 2.179870
v 68.98 72.6734 -1.0734
vn 1.750136 4.611013 1.780648
v 101.6596 29.1952 2.38068
vn -2.893116 -2.950992 0.811259
v 55.2196 13.7014 2.34918
vn -2.738905 -1.839009 -0.778635
v 53.321799999999996 13.9048 3.4834199999999997
vn -3.963771 -0.191579 1.083449
v 50.8524 14.6346 0.92316
vn -4.478453 -0.816961 0.821650
v 53.1418 14.538799999999998 4.288200000000001
vn -4.151833 3.593653 -0.070954
v 56.4148 15.9544 2.4111599999999997
vn -4.262734 2.958684 -2.133703
v 54.4654 17.0162 3.34272
vn -4.557566 2.602641 2.873105
v 44.983000000000004 56.336600000000004 4.73934
vn -3.585854 1.522762 3.839515
v 66.42 16.7166 5.92626
vn -3.464069 3.846639 1.783916
v 52.902 17.6078 0.9699
vn -3.594758 3.654895 0.597880
v 54.6156 18.169 4.23876
vn -2.606422 -1.107402 4.798820
v 45.2474 47.7144 5.7476400000000005
vn -5.541502 -2.785560 0.859177
v 45.669 33.9794 2.75622
vn -3.578291 -0.022109 4.777290
v 49.631 35.823 4.75086
vn -4.098996 -1.338759 4.005721
v 48.747 33.638600000000004 4.412100000000001
vn -4.410378 3.273653 1.409562
v 44.428999999999995 60.0514 3.0945
vn -3.879881 1.922477 4.131249
v 45.971999999999994 53.132000000000005 5.75772
vn -3.954958 3.277796 2.931495
v 57.2394 19.335 1.1076000000000001
vn -3.494178 3.965672 0.165923
v 58.764799999999994 17.635 2.27166
vn -3.670371 -0.369587 3.792990
v 70.0654 32.4596 6.508859999999999
vn -4.440791 3.803409 -0.271411
v 56.450199999999995 19.4986 0.44166
vn -4.373281 1.476120 0.931206
v 60.005 19.3132 2.0151
vn -4.110764 -3.408861 0.377211
v 57.1636 22.903399999999998 0.8518800000000001
vn -4.324073 -1.903085 3.972274
v 71.51820000000001 28.3788 6.2114400000000005
vn -3.225596 -0.893835 -2.513191
v 62.4702 14.0844 -3.1957199999999997
vn -4.738804 2.696486 -2.484056
v 62.256 16.217599999999997 -2.55192
vn -3.147971 2.067482 -3.799580
v 53.202600000000004 15.7638 -0.73332
vn -3.639210 2.445565 -4.010376
v 61.339600000000004 17.0114 -1.43766
vn -3.806395 3.937474 -1.359953
v 52.6518 17.3924 0.15372
vn -3.358885 3.424884 -3.783866
v 57.2566 18.4656 -0.5790000000000001
vn 0.225779 1.951857 -5.034683
v 82.0816 45.7192 -2.38056
vn -1.861433 2.019446 -4.671729
v 63.3528 19.7392 -1.28742
vn -4.201443 0.108811 -4.342868
v 58.6714 20.753 -0.7529399999999999
vn -3.674389 2.749399 -3.468324
v 68.5558 19.811799999999998 -2.82636
vn -1.770413 1.646785 -2.975979
v 66.7982 20.5134 -1.24542
vn -4.163994 -3.001489 -1.995139
v 57.1252 23.5122 0.0801
vn -4.559577 -1.295163 -3.784146
v 69.3228 21.7038 -3.2161199999999996
vn -2.653353 -0.641045 -3.685229
v 67.0756 22.064600000000002 -1.2888600000000001
vn -4.572063 -1.939903 -3.520165
v 68.744 25.816 -3.5936999999999997
vn -2.536593 -3.323523 -4.301607
v 58.3196 25.9678 -1.15212
vn -4.424937 2.417816 -3.180650
v 46.0704 60.169399999999996 0.7210799999999999
vn -1.339002 2.408420 -4.577636
v 66.195 16.9494 -3.58344
vn -2.395772 -4.799127 -2.555433
v 53.7406 25.1208 -0.33222
vn 1.232439 -2.230604 -5.604415
v 74.8296 14.469999999999999 -3.12018
vn -2.969848 -5.033114 0.071846
v 52.2958 24.335 1.42788
vn -4.176369 -4.411500 -1.172772
v 49.5968 27.266000000000002 0.57774
vn -1.043260 -2.427091 -5.499920
v 65.338 29.1022 -2.10588
vn -3.533453 -3.580139 -3.507998
v 50.3874 29.1784 -0.9399599999999999
vn -5.154507 -3.058576 -1.105784
v 46.3406 31.004399999999997 0.5955600000000001
vn -4.647518 -0.767861 -3.209147
v 67.4222 30.6056 -3.9194999999999998
vn -4.213137 -3.079962 -2.819803
v 48.2772 30.048799999999996 -0.495
vn -4.937208 -1.646263 -3.076672
v 46.821999999999996 33.1318 -0.53406
vn -3.216005 1.332299 -4.167227
v 68.9214 33.962599999999995 -4.371659999999999
vn -5.300582 -0.675364 1.644296
v 44.272 36.562 2.6892
vn -3.735811 -1.744658 -4.048774
v 65.6976 31.512 -2.52276
vn -1.526484 -2.299756 -2.413445
v 53.7054 13.36 -0.90234
vn -0.055188 3.618296 -4.553711
v 75.8978 39.9516 -2.93502
vn 1.127718 3.963032 -4.050728
v 80.5982 38.2034 -3.8253599999999994
vn -0.239940 2.645641 -5.162292
v 73.5482 36.1838 -4.500360000000001
vn -1.166426 0.113133 -5.779787
v 70.9144 18.6722 -3.29502
vn 1.339376 0.748601 -5.915135
v 78.0694 33.833999999999996 -4.4976
vn 1.508717 -3.375547 -4.096024
v 84.6324 14.6282 -2.70936
vn 0.442976 -1.985926 -5.744804
v 74.9348 17.3386 -3.24132
vn 1.719015 -2.415559 -5.482632
v 85.0256 18.7292 -3.09222
vn 1.308211 -1.812447 -5.591464
v 95.527 19.3842 -0.75402
vn 0.207046 -3.337877 -5.141621
v 76.0314 18.7774 -3.57804
vn 1.118351 -2.674342 -5.406502
v 81.3654 19.759999999999998 -3.5298
vn -1.131887 -2.277823 -5.336070
v 73.549 22.4522 -4.147679999999999
vn -3.820490 -3.583962 0.296763
v 43.6308 45.243 4.47138
vn 1.497427 -1.625260 -5.869240
v 82.185 22.2056 -3.68382
vn 0.894609 -2.098878 -5.840961
v 78.382 21.4634 -3.83988
vn 2.800509 -0.404973 -5.530053
v 88.046 24.674599999999998 -3.2722800000000003
vn 0.071630 -1.709518 -5.908653
v 64.6664 23.960600000000003 -1.42434
vn 1.297007 -0.491644 -5.942652
v 80.8642 25.613799999999998 -4.07622
vn 0.554942 -1.497691 -5.983230
v 74.3274 25.1482 -4.40862
vn -0.979939 -2.819984 -5.418797
v 60.569199999999995 28.2078 -1.8207600000000002
vn 2.120786 -0.459060 -5.864462
v 84.3914 27.854 -3.8076600000000003
vn 1.375597 -0.667979 -6.057950
v 78.3672 30.4642 -4.42242
vn -0.923392 -2.174397 -5.413429
v 62.7392 28.460600000000003 -2.1299400000000004
vn 1.243462 -5.320684 -2.733014
v 69.9306 63.0834 -1.24248
vn -1.518178 -1.144459 -5.272373
v 71.4798 28.6248 -4.6765799999999995
vn 2.752145 0.260290 -5.638645
v 85.7912 30.8612 -3.60342
vn -2.082314 -2.682602 -4.812923
v 53.647000000000006 30.2302 -1.9813200000000002
vn 2.252051 0.095330 -5.790576
v 82.982 31.761 -4.04052
vn -0.439818 -1.712589 -5.996311
v 62.947599999999994 32.7964 -2.4657
vn -0.928227 -3.361629 -4.749331
v 56.6556 28.7698 -2.00886
vn -0.422846 0.347402 -6.000020
v 72.3722 32.0554 -4.7272799999999995
vn -0.537905 -1.539712 -5.731621
v 58.2584 32.766400000000004 -2.5929
vn 0.436652 -5.320647 -2.107852
v 77.227 13.597999999999999 -2.75352
vn 0.433207 -5.548036 1.940012
v 67.7448 13.5152 -2.61252
vn -0.578532 -5.326665 1.983868
v 81.8358 13.7444 -1.9443599999999999
vn -0.859019 -6.000050 0.077111
v 84.7998 13.802600000000002 -1.34088
vn 1.881716 -5.728909 1.134914
v 64.3286 13.6186 -1.8984
vn 0.720203 -4.650209 2.437859
v 68.1384 15.423 -2.1329399999999996
vn -1.358068 -4.703226 2.598173
v 81.6468 15.447 -1.53618
vn -2.211067 -4.800031 -0.634851
v 82.2196 15.7056 -0.92148
vn 1.673605 -5.772738 -0.334891
v 63.043 13.5406 -0.64584
vn -2.133743 -4.911505 -0.970600
v 80.7548 13.6746 0.5571
vn -1.996776 -3.304407 -2.094450
v 60.5136 13.473199999999999 -1.58934
vn 2.397177 -4.861718 -0.069498
v 64.9002 15.3404 -0.8631
vn -1.749863 -5.654499 -0.578829
v 78.7384 15.4008 0.74118
vn 1.552460 -5.700517 -0.277920
v 93.3204 14.096400000000001 1.13418
vn 1.647545 -5.830082 -0.292400
v 69.7346 15.1526 1.5321
vn -0.274450 -5.959908 0.704984
v 86.9962 14.391399999999999 0.6354000000000001
vn -0.270851 -6.203645 -0.423206
v 88.9414 14.232800000000001 2.17362
vn 1.389091 -5.250390 -0.519836
v 66.6756 13.424 1.07148
vn 0.379972 -6.191524 0.523100
v 60.4902 13.428799999999999 0.55884
vn -1.745554 -5.298034 0.423032
v 80.828 13.5052 1.80492
vn 0.925085 -5.958899 0.397582
v 88.687 13.957600000000001 2.80716
vn 2.021353 -4.902370 2.699230
v 95.531 16.2788 3.05142
vn -2.331198 -1.822296 1.952712
v 52.057 13.794400000000001 1.42758
vn 0.237827 -5.569541 1.345502
v 61.9508 14.2562 1.05636
vn 0.137268 -6.227498 0.157801
v 58.0916 13.3624 1.79946
vn -1.057287 -6.005148 0.422154
v 65.569 14.1294 1.6641
vn 1.614546 -5.134736 0.252808
v 67.7338 13.516 2.0553
vn -1.518776 -5.640662 0.997185
v 83.8238 13.946 3.16026
vn -1.276975 -5.907164 0.703738
v 78.7192 15.351 2.33436
vn -0.996721 -5.789356 -0.911882
v 83.8698 13.9206 4.38678
vn -2.430916 -3.544272 -0.453542
v 83.3522 15.642600000000002 3.8541
vn 1.247711 -5.967958 0.171461
v 65.4622 13.7372 3.77076
vn -0.713433 -4.191866 2.723799
v 64.2568 13.9686 5.07336
vn 2.159344 -4.681463 -1.127054
v 67.794 15.418399999999998 4.2549600000000005
vn -0.203039 -5.202794 -2.093790
v 74.3134 15.7116 4.71624
vn 1.751202 -4.967710 1.761396
v 86.7676 14.058200000000001 4.97628
vn 1.646604 -5.435755 -1.619861
v 53.2656 58.592 -2.78532
vn 0.157570 -5.778044 -1.120111
v 72.7946 13.849800000000002 5.41218
vn 0.629125 -5.910194 -1.016968
v 68.231 13.9054 5.056019999999999
vn 2.310103 -2.307525 -1.476147
v 75.9426 66.5412 -2.56164
# 502 vertices, 0 vertices normals

f 317//317 187//187 237//237
f 187//187 223//223 237//237
f 317//317 237//237 368//368
f 353//353 223//223 187//187
f 73//73 237//237 223//223
f 234//234 187//187 317//317
f 237//237 157//157 368//368
f 157//157 237//237 106//106
f 234//234 254//254 187//187
f 234//234 317//317 191//191
f 237//237 73//73 106//106
f 187//187 254//254 353//353
f 157//157 106//106 193//193
f 336//336 223//223 353//353
f 191//191 317//317 368//368
f 123//123 368//368 157//157
f 254//254 133//133 353//353
f 223//223 336//336 73//73
f 127//127 123//123 157//157
f 157//157 193//193 127//127
f 106//106 73//73 193//193
f 191//191 368//368 371//371
f 371//371 368//368 123//123
f 195//195 254//254 234//234
f 353//353 499//499 336//336
f 461//461 433//433 435//435
f 235//235 362//362 336//336
f 452//452 455//455 461//461
f 452//452 449//449 455//455
f 336//336 362//362 73//73
f 461//461 455//455 427//427
f 133//133 254//254 195//195
f 433//433 461//461 427//427
f 195//195 234//234 191//191
f 435//435 452//452 461//461
f 427//427 455//455 424//424
f 433//433 427//427 150//150
f 435//435 433//433 172//172
f 442//442 455//455 449//449
f 458//458 452//452 435//435
f 458//458 435//435 172//172
f 16//16 371//371 123//123
f 455//455 413//413 424//424
f 172//172 433//433 432//432
f 449//449 445//445 442//442
f 458//458 451//451 452//452
f 433//433 150//150 316//316
f 452//452 451//451 449//449
f 448//448 449//449 451//451
f 448//448 445//445 449//449
f 348//348 458//458 172//172
f 433//433 316//316 432//432
f 348//348 172//172 432//432
f 427//427 72//72 150//150
f 311//311 235//235 336//336
f 336//336 499//499 311//311
f 445//445 440//440 442//442
f 440//440 434//434 442//442
f 442//442 413//413 455//455
f 448//448 444//444 445//445
f 133//133 499//499 353//353
f 456//456 458//458 348//348
f 424//424 87//87 427//427
f 451//451 458//458 456//456
f 127//127 101//101 123//123
f 448//448 446//446 444//444
f 150//150 431//431 316//316
f 411//411 413//413 442//442
f 127//127 193//193 161//161
f 451//451 446//446 448//448
f 441//441 440//440 445//445
f 444//444 441//441 445//445
f 360//360 451//451 456//456
f 150//150 370//370 431//431
f 360//360 446//446 451//451
f 416//416 344//344 331//331
f 346//346 444//444 446//446
f 427//427 87//87 72//72
f 437//437 434//434 440//440
f 64//64 191//191 371//371
f 442//442 434//434 411//411
f 437//437 344//344 416//416
f 346//346 438//438 444//444
f 441//441 438//438 440//440
f 437//437 418//418 344//344
f 432//432 364//364 348//348
f 444//444 438//438 441//441
f 437//437 416//416 434//434
f 127//127 161//161 101//101
f 208//208 307//307 122//122
f 307//307 251//251 158//158
f 438//438 437//437 440//440
f 399//399 416//416 331//331
f 316//316 431//431 432//432
f 416//416 408//408 434//434
f 355//355 456//456 348//348
f 307//307 158//158 122//122
f 150//150 72//72 370//370
f 348//348 364//364 355//355
f 344//344 418//418 463//463
f 434//434 408//408 411//411
f 360//360 456//456 355//355
f 331//331 344//344 463//463
f 307//307 10//10 251//251
f 101//101 16//16 123//123
f 424//424 413//413 429//429
f 399//399 400//400 416//416
f 424//424 429//429 87//87
f 432//432 431//431 77//77
f 346//346 313//313 438//438
f 122//122 158//158 263//263
f 446//446 350//350 346//346
f 437//437 436//436 418//418
f 328//328 313//313 346//346
f 331//331 463//463 464//464
f 371//371 16//16 64//64
f 432//432 77//77 364//364
f 367//367 408//408 416//416
f 208//208 257//257 307//307
f 429//429 413//413 411//411
f 438//438 436//436 437//437
f 416//416 400//400 367//367
f 193//193 73//73 362//362
f 195//195 191//191 64//64
f 418//418 436//436 463//463
f 329//329 431//431 370//370
f 370//370 72//72 327//327
f 329//329 339//339 431//431
f 355//355 356//356 360//360
f 72//72 87//87 165//165
f 257//257 208//208 502//502
f 431//431 178//178 77//77
f 257//257 242//242 307//307
f 307//307 242//242 10//10
f 346//346 341//341 328//328
f 339//339 178//178 431//431
f 341//341 346//346 350//350
f 329//329 370//370 327//327
f 19//19 208//208 122//122
f 327//327 72//72 165//165
f 313//313 436//436 438//438
f 324//324 364//364 77//77
f 188//188 311//311 499//499
f 429//429 165//165 87//87
f 235//235 311//311 188//188
f 331//331 464//464 467//467
f 193//193 362//362 161//161
f 429//429 411//411 412//412
f 313//313 310//310 436//436
f 462//462 164//164 239//239
f 10//10 137//137 251//251
f 239//239 165//165 462//462
f 463//463 465//465 464//464
f 165//165 459//459 462//462
f 327//327 165//165 239//239
f 251//251 137//137 158//158
f 356//356 446//446 360//360
f 263//263 262//262 122//122
f 429//429 459//459 165//165
f 77//77 47//47 324//324
f 19//19 122//122 262//262
f 502//502 208//208 19//19
f 364//364 324//324 41//41
f 327//327 239//239 169//169
f 77//77 304//304 47//47
f 364//364 41//41 355//355
f 178//178 304//304 77//77
f 411//411 408//408 412//412
f 459//459 450//450 462//462
f 462//462 170//170 164//164
f 327//327 219//219 329//329
f 450//450 460//460 462//462
f 463//463 436//436 310//310
f 47//47 304//304 405//405
f 169//169 239//239 347//347
f 356//356 350//350 446//446
f 219//219 339//339 329//329
f 164//164 264//264 239//239
f 355//355 41//41 325//325
f 64//64 16//16 32//32
f 429//429 421//421 459//459
f 195//195 64//64 35//35
f 264//264 164//164 170//170
f 32//32 16//16 101//101
f 347//347 239//239 264//264
f 460//460 170//170 462//462
f 369//369 169//169 347//347
f 325//325 356//356 355//355
f 339//339 304//304 178//178
f 169//169 342//342 327//327
f 264//264 278//278 347//347
f 324//324 47//47 41//41
f 369//369 342//342 169//169
f 235//235 188//188 112//112
f 10//10 242//242 163//163
f 421//421 453//453 459//459
f 453//453 450//450 459//459
f 170//170 457//457 62//62
f 408//408 409//409 412//412
f 342//342 219//219 327//327
f 468//468 464//464 465//465
f 278//278 170//170 62//62
f 463//463 310//310 465//465
f 460//460 457//457 170//170
f 224//224 369//369 347//347
f 468//468 467//467 464//464
f 325//325 41//41 34//34
f 469//469 468//468 465//465
f 264//264 170//170 278//278
f 27//27 158//158 374//374
f 27//27 263//263 158//158
f 429//429 412//412 421//421
f 137//137 374//374 158//158
f 310//310 466//466 465//465
f 351//351 350//350 356//356
f 367//367 400//400 406//406
f 347//347 278//278 149//149
f 51//51 304//304 339//339
f 340//340 350//350 351//351
f 363//363 351//351 356//356
f 356//356 325//325 84//84
f 219//219 51//51 339//339
f 473//473 400//400 399//399
f 421//421 447//447 453//453
f 408//408 367//367 409//409
f 405//405 304//304 319//319
f 271//271 262//262 263//263
f 71//71 242//242 257//257
f 363//363 356//356 84//84
f 105//105 133//133 195//195
f 278//278 62//62 45//45
f 454//454 257//257 502//502
f 71//71 163//163 242//242
f 405//405 337//337 47//47
f 319//319 337//337 405//405
f 347//347 149//149 224//224
f 367//367 406//406 409//409
f 34//34 41//41 25//25
f 450//450 414//414 460//460
f 412//412 447//447 421//421
f 188//188 499//499 335//335
f 337//337 41//41 47//47
f 331//331 467//467 471//471
f 13//13 454//454 502//502
f 224//224 180//180 369//369
f 447//447 450//450 453//453
f 13//13 502//502 19//19
f 133//133 105//105 499//499
f 341//341 350//350 340//340
f 10//10 182//182 137//137
f 473//473 402//402 400//400
f 417//417 457//457 460//460
f 369//369 180//180 342//342
f 469//469 465//465 466//466
f 342//342 332//332 219//219
f 467//467 468//468 474//474
f 469//469 470//470 468//468
f 422//422 62//62 457//457
f 46//46 278//278 45//45
f 182//182 10//10 163//163
f 313//313 328//328 321//321
f 399//399 331//331 473//473
f 400//400 402//402 406//406
f 62//62 426//426 45//45
f 41//41 337//337 25//25
f 161//161 362//362 255//255
f 321//321 328//328 341//341
f 149//149 278//278 46//46
f 362//362 235//235 255//255
f 447//447 406//406 450//450
f 325//325 34//34 84//84
f 321//321 341//341 340//340
f 333//333 337//337 319//319
f 149//149 184//184 224//224
f 469//469 466//466 470//470
f 271//271 19//19 262//262
f 35//35 105//105 195//195
f 235//235 112//112 255//255
f 409//409 447//447 412//412
f 430//430 402//402 473//473
f 35//35 64//64 32//32
f 219//219 332//332 51//51
f 414//414 417//417 460//460
f 422//422 426//426 62//62
f 417//417 422//422 457//457
f 257//257 152//152 71//71
f 447//447 409//409 406//406
f 105//105 335//335 499//499
f 60//60 25//25 337//337
f 304//304 51//51 319//319
f 342//342 56//56 332//332
f 224//224 184//184 349//349
f 426//426 422//422 425//425
f 255//255 101//101 161//161
f 46//46 45//45 156//156
f 406//406 407//407 450//450
f 71//71 86//86 163//163
f 283//283 19//19 271//271
f 255//255 305//305 101//101
f 152//152 86//86 71//71
f 374//374 137//137 182//182
f 406//406 402//402 407//407
f 331//331 471//471 473//473
f 450//450 407//407 414//414
f 466//466 310//310 309//309
f 149//149 168//168 36//36
f 51//51 332//332 214//214
f 184//184 149//149 36//36
f 335//335 36//36 188//188
f 149//149 46//46 168//168
f 184//184 36//36 252//252
f 315//315 313//313 321//321
f 345//345 321//321 340//340
f 20//20 263//263 27//27
f 163//163 160//160 182//182
f 180//180 56//56 342//342
f 430//430 401//401 402//402
f 310//310 313//313 309//309
f 407//407 402//402 404//404
f 333//333 60//60 337//337
f 309//309 313//313 315//315
f 163//163 86//86 160//160
f 105//105 36//36 335//335
f 404//404 402//402 401//401
f 454//454 152//152 257//257
f 468//468 470//470 477//477
f 36//36 168//168 188//188
f 467//467 474//474 471//471
f 45//45 426//426 216//216
f 271//271 263//263 20//20
f 184//184 252//252 349//349
f 319//319 51//51 129//129
f 105//105 252//252 36//36
f 352//352 439//439 321//321
f 319//319 129//129 333//333
f 468//468 477//477 474//474
f 13//13 19//19 283//283
f 224//224 349//349 180//180
f 46//46 225//225 168//168
f 216//216 156//156 45//45
f 345//345 340//340 351//351
f 188//188 168//168 207//207
f 352//352 320//320 439//439
f 439//439 315//315 321//321
f 13//13 288//288 454//454
f 334//334 401//401 430//430
f 320//320 314//314 439//439
f 156//156 253//253 46//46
f 345//345 352//352 321//321
f 34//34 269//269 84//84
f 351//351 363//363 358//358
f 410//410 417//417 414//414
f 35//35 177//177 105//105
f 401//401 403//403 404//404
f 168//168 225//225 207//207
f 51//51 214//214 129//129
f 255//255 112//112 305//305
f 4//4 25//25 60//60
f 107//107 60//60 333//333
f 188//188 207//207 112//112
f 46//46 253//253 225//225
f 363//363 84//84 269//269
f 414//414 407//407 410//410
f 349//349 1//1 180//180
f 332//332 128//128 214//214
f 372//372 333//333 129//129
f 439//439 314//314 315//315
f 349//349 252//252 247//247
f 1//1 56//56 180//180
f 288//288 152//152 454//454
f 105//105 177//177 247//247
f 105//105 247//247 252//252
f 352//352 326//326 320//320
f 56//56 6//6 332//332
f 403//403 401//401 334//334
f 160//160 194//194 182//182
f 283//283 288//288 13//13
f 474//474 480//480 471//471
f 374//374 182//182 194//194
f 470//470 466//466 472//472
f 358//358 345//345 351//351
f 35//35 15//15 177//177
f 349//349 88//88 1//1
f 25//25 4//4 34//34
f 404//404 395//395 407//407
f 86//86 247//247 177//177
f 466//466 309//309 472//472
f 216//216 205//205 156//156
f 374//374 20//20 27//27
f 160//160 86//86 177//177
f 194//194 43//43 374//374
f 426//426 425//425 423//423
f 332//332 6//6 128//128
f 31//31 101//101 305//305
f 225//225 144//144 207//207
f 86//86 152//152 247//247
f 358//358 366//366 345//345
f 422//422 417//417 425//425
f 315//315 314//314 309//309
f 288//288 273//273 152//152
f 407//407 395//395 410//410
f 15//15 160//160 177//177
f 473//473 471//471 430//430
f 323//323 320//320 326//326
f 269//269 358//358 363//363
f 225//225 253//253 89//89
f 475//475 470//470 472//472
f 403//403 395//395 404//404
f 4//4 60//60 107//107
f 425//425 417//417 420//420
f 4//4 269//269 34//34
f 314//314 320//320 312//312
f 345//345 366//366 352//352
f 216//216 426//426 55//55
f 207//207 415//415 112//112
f 207//207 308//308 415//415
f 207//207 144//144 308//308
f 156//156 21//21 253//253
f 277//277 288//288 283//283
f 31//31 32//32 101//101
f 352//352 330//330 326//326
f 419//419 417//417 410//410
f 112//112 415//415 305//305
f 247//247 88//88 349//349
f 107//107 333//333 372//372
f 128//128 129//129 214//214
f 20//20 374//374 43//43
f 426//426 423//423 55//55
f 309//309 314//314 476//476
f 470//470 475//475 477//477
f 15//15 194//194 160//160
f 471//471 481//481 430//430
f 334//334 430//430 485//485
f 277//277 283//283 271//271
f 205//205 21//21 156//156
f 35//35 32//32 15//15
f 314//314 312//312 476//476
f 225//225 40//40 144//144
f 277//277 271//271 20//20
f 352//352 366//366 330//330
f 471//471 480//480 481//481
f 477//477 480//480 474//474
f 277//277 273//273 288//288
f 247//247 152//152 273//273
f 378//378 403//403 334//334
f 89//89 40//40 225//225
f 312//312 320//320 323//323
f 15//15 32//32 31//31
f 68//68 88//88 247//247
f 4//4 97//97 269//269
f 56//56 1//1 6//6
f 378//378 334//334 485//485
f 194//194 63//63 43//43
f 338//338 326//326 330//330
f 472//472 309//309 478//478
f 68//68 247//247 273//273
f 269//269 366//366 358//358
f 312//312 323//323 322//322
f 1//1 88//88 100//100
f 423//423 425//425 420//420
f 403//403 384//384 395//395
f 430//430 481//481 487//487
f 419//419 410//410 397//397
f 89//89 253//253 21//21
f 420//420 417//417 419//419
f 430//430 487//487 376//376
f 129//129 128//128 30//30
f 410//410 395//395 392//392
f 372//372 129//129 3//3
f 378//378 384//384 403//403
f 481//481 480//480 486//486
f 63//63 194//194 15//15
f 322//322 323//323 326//326
f 128//128 6//6 30//30
f 430//430 376//376 485//485
f 366//366 357//357 330//330
f 354//354 338//338 330//330
f 410//410 392//392 397//397
f 481//481 486//486 487//487
f 420//420 189//189 423//423
f 205//205 167//167 21//21
f 153//153 88//88 68//68
f 357//357 354//354 330//330
f 55//55 205//205 216//216
f 31//31 305//305 143//143
f 57//57 43//43 63//63
f 33//33 97//97 4//4
f 415//415 308//308 303//303
f 472//472 478//478 482//482
f 4//4 107//107 33//33
f 129//129 30//30 48//48
f 21//21 167//167 202//202
f 228//228 68//68 273//273
f 384//384 392//392 395//395
f 129//129 48//48 3//3
f 57//57 20//20 43//43
f 322//322 326//326 338//338
f 144//144 256//256 308//308
f 228//228 273//273 277//277
f 423//423 189//189 343//343
f 228//228 277//277 20//20
f 153//153 100//100 88//88
f 309//309 479//479 478//478
f 300//300 269//269 97//97
f 366//366 269//269 300//300
f 211//211 30//30 6//6
f 55//55 167//167 205//205
f 309//309 476//476 479//479
f 384//384 378//378 485//485
f 211//211 1//1 100//100
f 20//20 57//57 228//228
f 144//144 40//40 256//256
f 135//135 420//420 419//419
f 475//475 472//472 491//491
f 6//6 1//1 211//211
f 312//312 322//322 318//318
f 357//357 366//366 300//300
f 189//189 420//420 135//135
f 486//486 480//480 488//488
f 22//22 107//107 372//372
f 423//423 343//343 55//55
f 303//303 308//308 166//166
f 293//293 338//338 354//354
f 61//61 97//97 33//33
f 397//397 365//365 419//419
f 480//480 477//477 489//489
f 397//397 392//392 396//396
f 21//21 202//202 218//218
f 480//480 489//489 488//488
f 211//211 100//100 76//76
f 477//477 475//475 491//491
f 312//312 318//318 476//476
f 491//491 472//472 482//482
f 166//166 308//308 256//256
f 372//372 3//3 22//22
f 303//303 305//305 415//415
f 89//89 21//21 218//218
f 397//397 396//396 365//365
f 15//15 31//31 63//63
f 354//354 357//357 375//375
f 80//80 57//57 63//63
f 89//89 132//132 40//40
f 143//143 305//305 303//303
f 55//55 343//343 387//387
f 479//479 482//482 478//478
f 76//76 100//100 153//153
f 300//300 97//97 61//61
f 392//392 384//384 380//380
f 357//357 300//300 375//375
f 393//393 396//396 392//392
f 49//49 211//211 76//76
f 486//486 488//488 494//494
f 392//392 380//380 393//393
f 487//487 486//486 494//494
f 306//306 419//419 365//365
f 286//286 322//322 338//338
f 135//135 419//419 185//185
f 485//485 376//376 384//384
f 40//40 132//132 256//256
f 167//167 55//55 428//428
f 384//384 376//376 380//380
f 33//33 107//107 8//8
f 428//428 55//55 387//387
f 479//479 476//476 483//483
f 80//80 31//31 143//143
f 292//292 354//354 375//375
f 375//375 300//300 296//296
f 476//476 484//484 483//483
f 482//482 479//479 490//490
f 354//354 292//292 293//293
f 109//109 48//48 30//30
f 146//146 228//228 57//57
f 8//8 107//107 22//22
f 89//89 70//70 132//132
f 476//476 318//318 484//484
f 218//218 70//70 89//89
f 63//63 31//31 80//80
f 286//286 318//318 322//322
f 293//293 286//286 338//338
f 306//306 365//365 396//396
f 109//109 30//30 211//211
f 185//185 419//419 306//306
f 343//343 189//189 361//361
f 38//38 303//303 166//166
f 256//256 38//38 166//166
f 33//33 281//281 61//61
f 81//81 80//80 143//143
f 153//153 68//68 280//280
f 143//143 303//303 390//390
f 146//146 57//57 80//80
f 359//359 196//196 202//202
f 482//482 490//490 491//491
f 286//286 279//279 318//318
f 318//318 279//279 484//484
f 70//70 218//218 145//145
f 490//490 479//479 483//483
f 343//343 361//361 387//387
f 218//218 202//202 145//145
f 11//11 22//22 3//3
f 58//58 300//300 61//61
f 483//483 484//484 274//274
f 256//256 5//5 38//38
f 11//11 3//3 48//48
f 145//145 202//202 196//196
f 202//202 167//167 359//359
f 292//292 375//375 159//159
f 265//265 49//49 76//76
f 189//189 135//135 361//361
f 377//377 380//380 376//376
f 380//380 381//381 393//393
f 286//286 293//293 292//292
f 281//281 33//33 8//8
f 393//393 98//98 396//396
f 146//146 68//68 228//228
f 280//280 76//76 153//153
f 494//494 488//488 489//489
f 396//396 98//98 306//306
f 11//11 48//48 109//109
f 54//54 81//81 143//143
f 490//490 493//493 491//491
f 303//303 38//38 390//390
f 167//167 428//428 359//359
f 159//159 375//375 296//296
f 285//285 286//286 292//292
f 490//490 483//483 492//492
f 54//54 143//143 390//390
f 37//37 109//109 211//211
f 380//380 377//377 381//381
f 387//387 361//361 299//299
f 296//296 300//300 58//58
f 361//361 135//135 185//185
f 483//483 274//274 268//268
f 279//279 286//286 285//285
f 381//381 98//98 393//393
f 265//265 76//76 280//280
f 306//306 151//151 185//185
f 70//70 24//24 132//132
f 256//256 132//132 5//5
f 477//477 491//491 496//496
f 376//376 487//487 495//495
f 8//8 22//22 67//67
f 37//37 211//211 142//142
f 146//146 280//280 68//68
f 281//281 8//8 12//12
f 151//151 306//306 115//115
f 359//359 287//287 196//196
f 26//26 61//61 281//281
f 211//211 49//49 108//108
f 70//70 145//145 24//24
f 489//489 477//477 496//496
f 142//142 211//211 108//108
f 376//376 495//495 377//377
f 428//428 140//140 359//359
f 270//270 276//276 265//265
f 306//306 98//98 115//115
f 67//67 22//22 11//11
f 279//279 93//93 484//484
f 134//134 292//292 159//159
f 279//279 285//285 93//93
f 12//12 8//8 67//67
f 489//489 496//496 494//494
f 265//265 280//280 270//270
f 49//49 265//265 108//108
f 134//134 285//285 292//292
f 61//61 26//26 58//58
f 130//130 11//11 109//109
f 428//428 387//387 299//299
f 490//490 492//492 493//493
f 487//487 494//494 495//495
f 428//428 299//299 388//388
f 428//428 388//388 140//140
f 134//134 159//159 296//296
f 58//58 297//297 296//296
f 44//44 280//280 146//146
f 359//359 140//140 215//215
f 124//124 134//134 296//296
f 67//67 11//11 130//130
f 297//297 58//58 26//26
f 359//359 215//215 287//287
f 134//134 93//93 285//285
f 274//274 484//484 93//93
f 132//132 24//24 5//5
f 17//17 109//109 37//37
f 93//93 85//85 274//274
f 276//276 108//108 265//265
f 268//268 274//274 85//85
f 381//381 385//385 98//98
f 176//176 38//38 5//5
f 241//241 361//361 185//185
f 377//377 379//379 381//381
f 124//124 296//296 297//297
f 145//145 443//443 181//181
f 17//17 130//130 109//109
f 82//82 142//142 108//108
f 2//2 146//146 80//80
f 388//388 299//299 389//389
f 261//261 280//280 44//44
f 145//145 181//181 24//24
f 124//124 85//85 93//93
f 379//379 385//385 381//381
f 299//299 361//361 389//389
f 93//93 134//134 124//124
f 115//115 98//98 95//95
f 491//491 493//493 497//497
f 145//145 196//196 443//443
f 12//12 148//148 281//281
f 148//148 26//26 281//281
f 215//215 140//140 141//141
f 185//185 151//151 373//373
f 151//151 115//115 95//95
f 289//289 124//124 297//297
f 44//44 146//146 2//2
f 377//377 495//495 171//171
f 494//494 496//496 501//501
f 85//85 124//124 289//289
f 390//390 382//382 54//54
f 390//390 38//38 176//176
f 85//85 39//39 268//268
f 241//241 185//185 373//373
f 361//361 241//241 389//389
f 280//280 69//69 270//270
f 108//108 244//244 82//82
f 5//5 24//24 176//176
f 276//276 244//244 108//108
f 9//9 81//81 54//54
f 276//276 270//270 69//69
f 261//261 69//69 280//280
f 491//491 497//497 496//496
f 388//388 141//141 140//140
f 250//250 243//243 276//276
f 151//151 95//95 126//126
f 2//2 80//80 81//81
f 39//39 85//85 272//272
f 125//125 12//12 67//67
f 390//390 176//176 382//382
f 24//24 181//181 176//176
f 272//272 85//85 289//289
f 7//7 37//37 142//142
f 148//148 12//12 125//125
f 483//483 268//268 498//498
f 2//2 81//81 9//9
f 83//83 130//130 17//17
f 7//7 142//142 82//82
f 250//250 249//249 245//245
f 492//492 497//497 493//493
f 276//276 243//243 244//244
f 244//244 227//227 82//82
f 113//113 136//136 116//116
f 94//94 26//26 148//148
f 302//302 297//297 26//26
f 39//39 498//498 268//268
f 250//250 276//276 69//69
f 67//67 246//246 125//125
f 130//130 246//246 67//67
f 245//245 243//243 250//250
f 83//83 246//246 130//130
f 186//186 373//373 151//151
f 382//382 9//9 54//54
f 261//261 44//44 2//2
f 196//196 287//287 443//443
f 116//116 136//136 147//147
f 186//186 151//151 183//183
f 379//379 377//377 192//192
f 287//287 215//215 245//245
f 29//29 249//249 250//250
f 79//79 96//96 95//95
f 291//291 272//272 289//289
f 29//29 69//69 261//261
f 116//116 91//91 113//113
f 151//151 126//126 183//183
f 492//492 483//483 498//498
f 232//232 7//7 82//82
f 125//125 94//94 148//148
f 291//291 289//289 297//297
f 494//494 501//501 495//495
f 126//126 95//95 96//96
f 227//227 232//232 82//82
f 379//379 192//192 385//385
f 226//226 245//245 215//215
f 229//229 243//243 245//245
f 385//385 50//50 98//98
f 192//192 50//50 385//385
f 291//291 297//297 295//295
f 95//95 98//98 50//50
f 497//497 492//492 500//500
f 116//116 96//96 91//91
f 497//497 500//500 496//496
f 126//126 96//96 116//116
f 116//116 147//147 131//131
f 96//96 53//53 91//91
f 126//126 116//116 131//131
f 69//69 29//29 250//250
f 248//248 246//246 83//83
f 37//37 240//240 17//17
f 7//7 240//240 37//37
f 500//500 501//501 496//496
f 141//141 226//226 215//215
f 287//287 245//245 282//282
f 230//230 244//244 243//243
f 2//2 275//275 261//261
f 275//275 29//29 261//261
f 443//443 287//287 110//110
f 79//79 53//53 96//96
f 284//284 272//272 291//291
f 284//284 267//267 272//272
f 377//377 171//171 192//192
f 295//295 297//297 302//302
f 500//500 492//492 498//498
f 241//241 200//200 389//389
f 240//240 248//248 17//17
f 232//232 240//240 7//7
f 94//94 18//18 26//26
f 131//131 147//147 162//162
f 110//110 287//287 238//238
f 246//246 231//231 125//125
f 389//389 200//200 388//388
f 200//200 241//241 373//373
f 50//50 79//79 95//95
f 287//287 282//282 238//238
f 52//52 53//53 79//79
f 226//226 229//229 245//245
f 131//131 162//162 126//126
f 18//18 302//302 26//26
f 53//53 383//383 91//91
f 141//141 388//388 226//226
f 267//267 39//39 272//272
f 244//244 230//230 227//227
f 394//394 147//147 398//398
f 229//229 230//230 243//243
f 162//162 147//147 210//210
f 183//183 190//190 209//209
f 126//126 162//162 190//190
f 248//248 83//83 17//17
f 183//183 126//126 190//190
f 200//200 373//373 197//197
f 209//209 227//227 230//230
f 227//227 209//209 217//217
f 201//201 183//183 209//209
f 186//186 183//183 201//201
f 99//99 248//248 240//240
f 495//495 53//53 266//266
f 382//382 391//391 9//9
f 388//388 200//200 226//226
f 147//147 136//136 398//398
f 298//298 302//302 18//18
f 217//217 190//190 162//162
f 52//52 266//266 53//53
f 217//217 162//162 210//210
f 201//201 209//209 230//230
f 282//282 245//245 249//249
f 443//443 110//110 181//181
f 190//190 217//217 209//209
f 260//260 249//249 29//29
f 231//231 18//18 94//94
f 302//302 298//298 295//295
f 136//136 113//113 102//102
f 373//373 186//186 197//197
f 197//197 204//204 200//200
f 181//181 391//391 176//176
f 246//246 248//248 90//90
f 231//231 94//94 125//125
f 99//99 90//90 248//248
f 197//197 201//201 229//229
f 226//226 204//204 229//229
f 386//386 181//181 110//110
f 111//111 2//2 9//9
f 186//186 201//201 197//197
f 227//227 217//217 232//232
f 240//240 236//236 99//99
f 229//229 201//201 230//230
f 176//176 391//391 382//382
f 79//79 50//50 52//52
f 192//192 171//171 50//50
f 113//113 74//74 102//102
f 232//232 236//236 240//240
f 217//217 210//210 236//236
f 229//229 204//204 197//197
f 217//217 236//236 232//232
f 275//275 14//14 29//29
f 501//501 65//65 495//495
f 200//200 204//204 226//226
f 90//90 233//233 246//246
f 221//221 298//298 18//18
f 39//39 267//267 59//59
f 495//495 266//266 171//171
f 290//290 275//275 2//2
f 181//181 386//386 391//391
f 91//91 74//74 113//113
f 2//2 111//111 290//290
f 231//231 221//221 18//18
f 104//104 267//267 284//284
f 233//233 231//231 246//246
f 282//282 249//249 260//260
f 294//294 291//291 295//295
f 50//50 266//266 52//52
f 498//498 39//39 258//258
f 9//9 391//391 111//111
f 92//92 267//267 104//104
f 59//59 258//258 39//39
f 203//203 238//238 282//282
f 258//258 59//59 23//23
f 398//398 136//136 117//117
f 294//294 284//284 291//291
f 136//136 102//102 117//117
f 92//92 59//59 267//267
f 171//171 266//266 50//50
f 501//501 500//500 65//65
f 383//383 74//74 91//91
f 294//294 295//295 298//298
f 147//147 394//394 210//210
f 213//213 221//221 231//231
f 391//391 386//386 121//121
f 14//14 260//260 29//29
f 500//500 498//498 258//258
f 495//495 383//383 53//53
f 386//386 110//110 238//238
f 74//74 75//75 102//102
f 231//231 233//233 213//213
f 111//111 42//42 290//290
f 99//99 236//236 220//220
f 78//78 233//233 90//90
f 104//104 284//284 294//294
f 75//75 117//117 102//102
f 386//386 238//238 121//121
f 495//495 65//65 383//383
f 78//78 90//90 99//99
f 119//119 104//104 294//294
f 238//238 120//120 121//121
f 42//42 275//275 290//290
f 78//78 99//99 220//220
f 103//103 75//75 23//23
f 103//103 23//23 59//59
f 301//301 294//294 298//298
f 213//213 233//233 222//222
f 259//259 258//258 23//23
f 238//238 203//203 120//120
f 75//75 66//66 23//23
f 301//301 298//298 221//221
f 28//28 282//282 260//260
f 42//42 14//14 275//275
f 28//28 203//203 282//282
f 103//103 59//59 92//92
f 111//111 391//391 42//42
f 65//65 500//500 258//258
f 74//74 383//383 66//66
f 301//301 139//139 294//294
f 259//259 23//23 66//66
f 117//117 75//75 118//118
f 74//74 66//66 75//75
f 119//119 294//294 139//139
f 236//236 210//210 220//220
f 391//391 121//121 42//42
f 301//301 221//221 213//213
f 118//118 75//75 103//103
f 120//120 42//42 121//121
f 222//222 175//175 213//213
f 14//14 28//28 260//260
f 258//258 259//259 65//65
f 92//92 104//104 119//119
f 42//42 120//120 14//14
f 120//120 203//203 28//28
f 233//233 78//78 222//222
f 65//65 66//66 383//383
f 114//114 103//103 92//92
f 175//175 301//301 213//213
f 28//28 14//14 120//120
f 210//210 198//198 220//220
f 114//114 92//92 119//119
f 301//301 175//175 139//139
f 118//118 103//103 114//114
f 210//210 394//394 198//198
f 138//138 119//119 139//139
f 65//65 259//259 66//66
f 114//114 119//119 138//138
f 117//117 179//179 398//398
f 398//398 179//179 394//394
f 118//118 114//114 138//138
f 220//220 212//212 78//78
f 117//117 154//154 179//179
f 154//154 117//117 118//118
f 179//179 154//154 173//173
f 78//78 206//206 222//222
f 155//155 139//139 175//175
f 78//78 212//212 206//206
f 155//155 138//138 139//139
f 118//118 155//155 154//154
f 155//155 118//118 138//138
f 173//173 155//155 174//174
f 174//174 155//155 175//175
f 198//198 212//212 220//220
f 394//394 179//179 198//198
f 175//175 222//222 206//206
f 198//198 199//199 212//212
f 212//212 199//199 206//206
f 173//173 154//154 155//155
f 174//174 175//175 206//206
f 199//199 174//174 206//206
f 198//198 179//179 199//199
f 199//199 173//173 174//174
f 179//179 173//173 199//199
# 1000 faces, 0 coords texture

# End of File