####
#
# OBJ File Generated by Meshlab
#
####
# Object diamond_text.obj
#
# Vertices: 57
# Faces: 110
#
####
vn -3.5823226 3.5823226 -2.0238256
v -1.4142129 1.4142120 0.0601850
vn -3.6354225 3.6354227 1.9586473
v -1.4142129 1.4142120 0.1242330
vn -4.6991963 1.9464750 2.0108190
v -1.8477590 0.7653660 0.1242330
vn -4.6744499 1.9362241 -2.0300610
v -1.8477590 0.7653660 0.0601850
vn -1.9362208 4.6744437 -2.0300672
v -0.7653670 1.8477581 0.0601850
vn -1.9465101 4.6992850 2.0107338
v -0.7653670 1.8477581 0.1242330
vn -0.0000031 5.0661678 -2.0238261
v -0.0000000 1.9999990 0.0601850
vn -0.0000033 5.1412601 1.9586480
v -0.0000000 1.9999990 0.1242330
vn 1.9362146 4.6744447 -2.0300674
v 0.7653670 1.8477590 0.0601850
vn 1.9465046 4.6992860 2.0107343
v 0.7653670 1.8477590 0.1242330
vn 3.5823183 3.5823207 -2.0238271
v 1.4142129 1.4142140 0.0601840
vn 3.6354198 3.6354229 1.9586467
v 1.4142129 1.4142140 0.1242330
vn 4.6744437 1.9362196 -2.0300691
v 1.8477590 0.7653670 0.0601840
vn 4.6992822 1.9465098 2.0107350
v 1.8477590 0.7653670 0.1242340
vn 5.0661635 0.0000004 -2.0238266
v 2.0000000 0.0000010 0.0601840
vn 5.1412606 0.0000006 1.9586471
v 2.0000000 0.0000010 0.1242340
vn 4.6744432 -1.9362204 -2.0300684
v 1.8477590 -0.7653660 0.0601840
vn 4.6992836 -1.9465102 2.0107341
v 1.8477590 -0.7653660 0.1242340
vn 2.8291163 -2.8291111 -4.5541101
v 0.5733510 -0.5733500 -1.1061250
vn 3.5823221 -3.5823221 -2.0238268
v 1.4142129 -1.4142120 0.0601840
vn 1.9362208 -4.6744432 -2.0300679
v 0.7653670 -1.8477581 0.0601840
vn 0.0000004 -4.0009713 -4.5541105
v -0.0000000 -0.8108400 -1.1061250
vn 0.0000030 -5.0661669 -2.0238266
v 0.0000000 -1.9999990 0.0601840
vn -1.9362154 -4.6744442 -2.0300689
v -0.7653670 -1.8477590 0.0601840
vn -2.8291159 -2.8291104 -4.5541110
v -0.5733510 -0.5733500 -1.1061250
vn -3.5823190 -3.5823202 -2.0238266
v -1.4142129 -1.4142140 0.0601840
vn -4.0011015 -0.0003434 -4.5541229
v -0.8108440 0.0000000 -1.1061209
vn -5.0661621 0.0000006 -2.0238271
v -2.0000000 -0.0000010 0.0601840
vn -2.8289602 2.8294473 -4.5541210
v -0.5733530 0.5733530 -1.1061220
vn 4.0009723 0.0000046 -4.5541110
v 0.8108420 0.0000010 -1.1061230
vn -0.0000008 4.0009756 -4.5541096
v -0.0000000 0.8108460 -1.1061190
vn 0.0000163 -0.0000067 -3.4420459
v 0.0000000 0.0000000 -1.8046890
vn 2.8291101 2.8291175 -4.5541105
v 0.5733540 0.5733550 -1.1061200
vn -4.6744432 -1.9362195 -2.0300694
v -1.8477590 -0.7653670 0.0601840
vn -2.6475263 2.6469734 4.7021618
v -0.9711470 0.9711460 0.7832580
vn 0.0000160 3.7439544 4.7021766
v -0.0000000 1.3734111 0.7832550
vn 2.6473799 2.6473613 4.7021785
v 0.9711470 0.9711470 0.7832580
vn 3.6354208 -3.6354227 1.9586484
v 1.4142129 -1.4142120 0.1242340
vn 1.9465101 -4.6992860 2.0107327
v 0.7653670 -1.8477581 0.1242330
vn 0.0000030 -5.1412635 1.9586465
v 0.0000000 -1.9999990 0.1242330
vn -1.9465053 -4.6992865 2.0107331
v -0.7653670 -1.8477590 0.1242330
vn -3.6354203 -3.6354237 1.9586458
v -1.4142129 -1.4142140 0.1242330
vn -4.6992831 -1.9465097 2.0107348
v -1.8477590 -0.7653670 0.1242340
vn -5.1412592 0.0000005 1.9586480
v -2.0000000 -0.0000010 0.1242340
vn -3.7439220 0.0003938 4.7020864
v -1.3734090 -0.0000010 0.7832590
vn -0.8048109 1.9432230 5.4369235
v -0.3941420 0.9517950 0.9981740
vn 0.8050129 1.9431527 5.4369321
v 0.3943230 0.9517210 0.9981730
vn 3.7439487 -0.0000161 4.7021770
v 1.3734111 0.0000010 0.7832570
vn 1.9432360 0.8047811 5.4369330
v 0.9517960 0.3941420 0.9981740
vn 2.6473613 -2.6473873 4.7021756
v 0.9711480 -0.9711470 0.7832570
vn -0.0000160 -3.7439542 4.7021747
v 0.0000000 -1.3734111 0.7832560
vn -2.6473835 -2.6473639 4.7021756
v -0.9711480 -0.9711480 0.7832570
vn -1.9437737 0.8050888 5.4363799
v -0.9517960 0.3941420 0.9981740
vn 1.9431437 -0.8050130 5.4369302
v 0.9517220 -0.3943210 0.9981740
vn 0.8047809 -1.9432424 5.4369273
v 0.3941420 -0.9517960 0.9981740
vn -0.8050107 -1.9431430 5.4369316
v -0.3943220 -0.9517210 0.9981740
vn -1.9432290 -0.8048199 5.4369349
v -0.9517970 -0.3941420 0.9981740
# 57 vertices, 0 vertices normals

f 1//1 3//3 2//2
f 1//1 4//4 3//3
f 5//5 2//2 6//6
f 5//5 1//1 2//2
f 7//7 6//6 8//8
f 7//7 5//5 6//6
f 9//9 8//8 10//10
f 9//9 7//7 8//8
f 11//11 10//10 12//12
f 11//11 9//9 10//10
f 13//13 12//12 14//14
f 13//13 11//11 12//12
f 15//15 14//14 16//16
f 15//15 13//13 14//14
f 17//17 16//16 18//18
f 17//17 15//15 16//16
f 17//17 20//20 19//19
f 21//21 23//23 22//22
f 22//22 23//23 24//24
f 24//24 26//26 25//25
f 27//27 28//28 4//4
f 29//29 1//1 5//5
f 4//4 1//1 29//29
f 13//13 15//15 30//30
f 5//5 7//7 31//31
f 29//29 31//31 32//32
f 29//29 5//5 31//31
f 31//31 7//7 9//9
f 9//9 11//11 33//33
f 31//31 33//33 32//32
f 31//31 9//9 33//33
f 33//33 11//11 13//13
f 30//30 15//15 17//17
f 33//33 30//30 32//32
f 33//33 13//13 30//30
f 19//19 20//20 21//21
f 30//30 19//19 32//32
f 30//30 17//17 19//19
f 25//25 26//26 34//34
f 19//19 22//22 32//32
f 19//19 21//21 22//22
f 34//34 28//28 27//27
f 22//22 25//25 32//32
f 22//22 24//24 25//25
f 4//4 32//32 27//27
f 4//4 29//29 32//32
f 25//25 27//27 32//32
f 25//25 34//34 27//27
f 35//35 2//2 3//3
f 36//36 8//8 6//6
f 10//10 8//8 36//36
f 37//37 12//12 10//10
f 20//20 18//18 38//38
f 20//20 17//17 18//18
f 21//21 38//38 39//39
f 21//21 20//20 38//38
f 23//23 39//39 40//40
f 23//23 21//21 39//39
f 24//24 40//40 41//41
f 24//24 23//23 40//40
f 26//26 41//41 42//42
f 26//26 24//24 41//41
f 34//34 42//42 43//43
f 34//34 26//26 42//42
f 28//28 43//43 44//44
f 28//28 34//34 43//43
f 4//4 44//44 3//3
f 4//4 28//28 44//44
f 45//45 44//44 43//43
f 3//3 44//44 45//45
f 6//6 2//2 35//35
f 35//35 36//36 6//6
f 35//35 46//46 36//36
f 14//14 12//12 37//37
f 36//36 37//37 10//10
f 36//36 47//47 37//37
f 18//18 16//16 48//48
f 48//48 16//16 14//14
f 37//37 48//48 14//14
f 37//37 49//49 48//48
f 50//50 38//38 18//18
f 39//39 38//38 50//50
f 51//51 40//40 39//39
f 52//52 42//42 41//41
f 41//41 40//40 51//51
f 43//43 42//42 52//52
f 3//3 53//53 35//35
f 3//3 45//45 53//53
f 46//46 47//47 36//36
f 53//53 46//46 35//35
f 47//47 49//49 37//37
f 48//48 50//50 18//18
f 48//48 54//54 50//50
f 49//49 54//54 48//48
f 50//50 51//51 39//39
f 50//50 55//55 51//51
f 51//51 52//52 41//41
f 51//51 56//56 52//52
f 52//52 45//45 43//43
f 52//52 57//57 45//45
f 57//57 53//53 45//45
f 56//56 57//57 52//52
f 55//55 56//56 51//51
f 54//54 55//55 50//50
f 57//57 56//56 55//55
f 54//54 57//57 55//55
f 53//53 57//57 54//54
f 49//49 53//53 54//54
f 46//46 53//53 49//49
f 47//47 46//46 49//49
# 110 faces, 0 coords texture

# End of File
